<svg xmlns="http://www.w3.org/2000/svg" width="1200" height="630" viewBox="0 0 1200 630"><rect width="1200" height="630" fill="#103B36"/><path d="M760 0h440v630H900Z" fill="#1E5649"/><g transform="translate(70 62) scale(1.25)"><rect width="48" height="48" rx="13" fill="#22C99D"/><path d="m11 19 6-7h14l6 7H11Z" fill="none" stroke="#103B36" stroke-width="2.5" stroke-linejoin="round"/><path d="M14 24v11h12c6 0 9-4 9-9v-2" fill="none" stroke="#103B36" stroke-width="3" stroke-linecap="round" stroke-linejoin="round"/><path d="m20 26 5 5 10-11" fill="none" stroke="#FFFFFF" stroke-width="3" stroke-linecap="round" stroke-linejoin="round"/></g><text x="145" y="105" fill="#FFFFFF" font-family="Manrope,Arial,sans-serif" font-size="40" font-weight="750">DukaanSet</text><text x="70" y="260" fill="#FFFFFF" font-family="Manrope,Arial,sans-serif" font-size="62" font-weight="700">Your shop. Your people.</text><text x="70" y="345" fill="#A5EFD1" font-family="Manrope,Arial,sans-serif" font-size="76" font-weight="700">All set.</text><text x="73" y="425" fill="#C0DACD" font-family="Manrope,Arial,sans-serif" font-size="24">Sales. Stock. Customer hisaab. Connected.</text><text x="73" y="545" fill="#C0DACD" font-family="Manrope,Arial,sans-serif" font-size="20">English · Hindi · Hinglish</text><g transform="translate(960 480) scale(1.5)"><rect width="48" height="48" rx="13" fill="#A5EFD1"/><path d="m11 19 6-7h14l6 7H11Z" fill="none" stroke="#103B36" stroke-width="2.5" stroke-linejoin="round"/><path d="M14 24v11h12c6 0 9-4 9-9v-2" fill="none" stroke="#103B36" stroke-width="3" stroke-linecap="round" stroke-linejoin="round"/><path d="m20 26 5 5 10-11" fill="none" stroke="#103B36" stroke-width="3" stroke-linecap="round" stroke-linejoin="round"/></g></svg>